<?xml version="1.0" encoding="UTF-8" standalone="no" ?>
<!DOCTYPE svg PUBLIC "-//W3C//DTD SVG 1.1//EN" "http://www.w3.org/Graphics/SVG/1.1/DTD/svg11.dtd">
<svg xmlns="http://www.w3.org/2000/svg" xmlns:xlink="http://www.w3.org/1999/xlink" version="1.1" width="1080" height="1080" viewBox="0 0 1080 1080" xml:space="preserve">
<desc>Created with Fabric.js 5.2.4</desc>
<g transform="matrix(1 0 0 1 540 540)" id="2f2c72fe-05ca-4bc6-8128-e0f8f693c417"  >
<rect style="stroke: none; stroke-width: 1; stroke-dasharray: none; stroke-linecap: butt; stroke-dashoffset: 0; stroke-linejoin: miter; stroke-miterlimit: 4; fill: rgb(255,255,255); fill-rule: nonzero; opacity: 1; visibility: hidden;" vector-effect="non-scaling-stroke"  x="-540" y="-540" rx="0" ry="0" width="1080" height="1080" />
</g>
<g transform="matrix(1 0 0 1 540 540)" id="fcf1c40a-674b-4f09-a8aa-b78008fdd671"  >
</g>
<g transform="matrix(32.24 0 0 32.24 540.15 526.09)" id="46e41f93-8a7c-469f-afe6-e2c88b846f6d"  >
<path style="stroke: rgb(0,0,0); stroke-width: 0; stroke-dasharray: none; stroke-linecap: butt; stroke-dashoffset: 0; stroke-linejoin: miter; stroke-miterlimit: 4; fill: rgb(255,255,255); fill-rule: nonzero; opacity: 1;" vector-effect="non-scaling-stroke"  transform=" translate(-18.05, -17.31)" d="M 18 1.4 C 9 1.4 1.7 8.7 1.7 17.7 C 1.7 24.9 6.4 31 12.799999999999999 33.2 C 13.6 33.300000000000004 13.899999999999999 32.800000000000004 13.899999999999999 32.400000000000006 C 13.899999999999999 32.00000000000001 13.899999999999999 31.000000000000007 13.899999999999999 29.600000000000005 C 9.399999999999999 30.600000000000005 8.399999999999999 27.400000000000006 8.399999999999999 27.400000000000006 C 7.699999999999998 25.500000000000007 6.599999999999999 25.000000000000007 6.599999999999999 25.000000000000007 C 5.099999999999999 24.000000000000007 6.699999999999998 24.000000000000007 6.699999999999998 24.000000000000007 C 8.299999999999999 24.10000000000001 9.2 25.700000000000006 9.2 25.700000000000006 C 10.7 28.200000000000006 13 27.500000000000007 13.899999999999999 27.100000000000005 C 13.999999999999998 26.000000000000004 14.499999999999998 25.300000000000004 14.899999999999999 24.900000000000006 C 11.299999999999999 24.500000000000007 7.499999999999998 23.100000000000005 7.499999999999998 16.800000000000004 C 7.499999999999998 15.000000000000004 8.099999999999998 13.600000000000005 9.199999999999998 12.400000000000004 C 8.999999999999998 12.000000000000004 8.499999999999998 10.300000000000004 9.399999999999997 8.100000000000005 C 9.399999999999997 8.100000000000005 10.799999999999997 7.700000000000005 13.899999999999997 9.800000000000004 C 15.199999999999998 9.400000000000004 16.599999999999998 9.300000000000004 17.999999999999996 9.300000000000004 C 19.399999999999995 9.300000000000004 20.799999999999997 9.500000000000004 22.099999999999994 9.800000000000004 C 25.199999999999996 7.700000000000005 26.599999999999994 8.100000000000005 26.599999999999994 8.100000000000005 C 27.499999999999993 10.300000000000004 26.899999999999995 12.000000000000005 26.799999999999994 12.400000000000006 C 27.799999999999994 13.500000000000005 28.499999999999993 15.000000000000005 28.499999999999993 16.800000000000004 C 28.499999999999993 23.100000000000005 24.699999999999992 24.400000000000006 21.099999999999994 24.800000000000004 C 21.699999999999996 25.300000000000004 22.199999999999996 26.300000000000004 22.199999999999996 27.800000000000004 C 22.199999999999996 30.000000000000004 22.199999999999996 31.700000000000003 22.199999999999996 32.300000000000004 C 22.199999999999996 32.7 22.499999999999996 33.2 23.299999999999997 33.1 C 29.799999999999997 30.900000000000002 34.4 24.8 34.4 17.6 C 34.3 8.7 27 1.4 18 1.4 z" stroke-linecap="round" />
</g>
</svg>